<svg width="28" height="28" viewBox="0 0 28 28" fill="none" xmlns="http://www.w3.org/2000/svg">
<path d="M8.5 3.5C7.90326 3.5 7.33097 3.73705 6.90901 4.15901C6.48705 4.58097 6.25 5.15326 6.25 5.75C6.25 6.34674 6.48705 6.91903 6.90901 7.34099C7.33097 7.76295 7.90326 8 8.5 8C9.09674 8 9.66903 7.76295 10.091 7.34099C10.5129 6.91903 10.75 6.34674 10.75 5.75C10.75 5.15326 10.5129 4.58097 10.091 4.15901C9.66903 3.73705 9.09674 3.5 8.5 3.5ZM4.75 5.75C4.75 4.75544 5.14509 3.80161 5.84835 3.09835C6.55161 2.39509 7.50544 2 8.5 2C9.49456 2 10.4484 2.39509 11.1517 3.09835C11.8549 3.80161 12.25 4.75544 12.25 5.75C12.25 6.74456 11.8549 7.69839 11.1517 8.40165C10.4484 9.10491 9.49456 9.5 8.5 9.5C7.50544 9.5 6.55161 9.10491 5.84835 8.40165C5.14509 7.69839 4.75 6.74456 4.75 5.75ZM2 12.982C2 11.887 2.887 11 3.982 11H9.582C9.39235 11.4789 9.28223 11.9856 9.256 12.5H3.982C3.85417 12.5 3.73157 12.5508 3.64117 12.6412C3.55078 12.7316 3.5 12.8542 3.5 12.982V13.375C3.5 13.547 3.502 14.588 4.107 15.572C4.627 16.416 5.661 17.331 7.86 17.479C7.35149 17.8094 6.95534 18.2864 6.724 18.847C4.719 18.476 3.517 17.475 2.83 16.357C2 15.01 2 13.618 2 13.378V12.982ZM18.417 11C18.603 11.468 18.717 11.973 18.743 12.5H24.018C24.284 12.5 24.5 12.716 24.5 12.982V13.375C24.5 13.547 24.498 14.588 23.892 15.572C23.373 16.416 22.34 17.331 20.14 17.479C20.645 17.807 21.044 18.284 21.276 18.847C23.281 18.476 24.483 17.475 25.17 16.357C26 15.009 26 13.617 26 13.377V12.982C26 12.4563 25.7912 11.9522 25.4195 11.5805C25.0478 11.2088 24.5437 11 24.018 11H18.417ZM19.5 3.5C18.9033 3.5 18.331 3.73705 17.909 4.15901C17.4871 4.58097 17.25 5.15326 17.25 5.75C17.25 6.34674 17.4871 6.91903 17.909 7.34099C18.331 7.76295 18.9033 8 19.5 8C20.0967 8 20.669 7.76295 21.091 7.34099C21.5129 6.91903 21.75 6.34674 21.75 5.75C21.75 5.15326 21.5129 4.58097 21.091 4.15901C20.669 3.73705 20.0967 3.5 19.5 3.5ZM15.75 5.75C15.75 4.75544 16.1451 3.80161 16.8483 3.09835C17.5516 2.39509 18.5054 2 19.5 2C20.4946 2 21.4484 2.39509 22.1517 3.09835C22.8549 3.80161 23.25 4.75544 23.25 5.75C23.25 6.74456 22.8549 7.69839 22.1517 8.40165C21.4484 9.10491 20.4946 9.5 19.5 9.5C18.5054 9.5 17.5516 9.10491 16.8483 8.40165C16.1451 7.69839 15.75 6.74456 15.75 5.75ZM7.5 19.982C7.5 18.887 8.387 18 9.482 18H18.518C19.613 18 20.5 18.887 20.5 19.982V20.377C20.5 20.617 20.5 22.009 19.67 23.357C18.8 24.773 17.106 26 14 26C10.894 26 9.2 24.772 8.33 23.358C7.5 22.009 7.5 20.618 7.5 20.377V19.982ZM9.482 19.5C9.35417 19.5 9.23157 19.5508 9.14117 19.6412C9.05078 19.7316 9 19.8542 9 19.982V20.375C9 20.547 9.002 21.588 9.607 22.572C10.175 23.494 11.356 24.5 14 24.5C16.644 24.5 17.825 23.494 18.392 22.572C18.998 21.589 19 20.547 19 20.375V19.982C19 19.8542 18.9492 19.7316 18.8588 19.6412C18.7684 19.5508 18.6458 19.5 18.518 19.5H9.482ZM11.75 12.75C11.75 12.4545 11.8082 12.1619 11.9213 11.889C12.0343 11.616 12.2001 11.3679 12.409 11.159C12.6179 10.9501 12.866 10.7843 13.139 10.6713C13.4119 10.5582 13.7045 10.5 14 10.5C14.2955 10.5 14.5881 10.5582 14.861 10.6713C15.134 10.7843 15.3821 10.9501 15.591 11.159C15.7999 11.3679 15.9657 11.616 16.0787 11.889C16.1918 12.1619 16.25 12.4545 16.25 12.75C16.25 13.3467 16.0129 13.919 15.591 14.341C15.169 14.7629 14.5967 15 14 15C13.4033 15 12.831 14.7629 12.409 14.341C11.9871 13.919 11.75 13.3467 11.75 12.75ZM14 9C13.0054 9 12.0516 9.39509 11.3483 10.0983C10.6451 10.8016 10.25 11.7554 10.25 12.75C10.25 13.7446 10.6451 14.6984 11.3483 15.4017C12.0516 16.1049 13.0054 16.5 14 16.5C14.9946 16.5 15.9484 16.1049 16.6517 15.4017C17.3549 14.6984 17.75 13.7446 17.75 12.75C17.75 11.7554 17.3549 10.8016 16.6517 10.0983C15.9484 9.39509 14.9946 9 14 9Z" fill="#9C9AA2"/>
</svg>
