<svg width="152" height="32" viewBox="0 0 152 32" fill="none" xmlns="http://www.w3.org/2000/svg">
<g clip-path="url(#clip0_25_12775)">
<path d="M13.9306 0.00195312C9.07786 0.00195312 4.985 0.269922 4.37441 0.62588C3.30787 0.989838 2.50529 3.41222 2.50263 6.28655V7.71438H2.21199C2.18224 7.64879 2.14268 7.58811 2.09467 7.53441C2.22057 7.38944 2.28971 7.2038 2.28932 7.0118V6.28655C2.30629 6.11689 2.25624 5.94731 2.14988 5.81404C2.04351 5.68078 1.88926 5.59438 1.72005 5.5733H0.576186C0.40601 5.59469 0.250982 5.68189 0.144324 5.81621C0.0376656 5.95053 -0.0121376 6.12129 0.00558645 6.29188V6.28922V7.01447C0.00558645 7.21444 0.0789112 7.39842 0.20023 7.5384L0.198897 7.53707C0.0730067 7.68204 0.00386359 7.86768 0.00425327 8.05968V11.6406C0.00158691 11.6606 0.00158691 11.6819 0.00158691 11.7046C0.00158691 12.0379 0.250891 12.3138 0.57352 12.3538H1.71872C1.82596 12.3483 1.92936 12.3121 2.01658 12.2494C2.1038 12.1868 2.17117 12.1004 2.21066 12.0005L2.21199 11.9965H2.50263V18.4251C2.50263 18.6798 2.77593 18.9157 3.21721 19.0424V19.877C2.58662 19.9583 2.15067 20.2423 2.15067 20.5675V27.7134C2.10585 28.5989 2.36037 29.4738 2.87325 30.1971L2.86525 30.1851V31.4129C2.86525 31.7369 3.12789 31.9995 3.45185 31.9995H5.8489C6.00448 31.9995 6.15368 31.9377 6.26369 31.8277C6.3737 31.7177 6.4355 31.5685 6.4355 31.4129V30.5717H21.4297V31.4129C21.4297 31.7369 21.6924 31.9995 22.0163 31.9995H24.4134C24.4904 31.9995 24.5667 31.9844 24.6379 31.9549C24.709 31.9254 24.7737 31.8822 24.8282 31.8277C24.8827 31.7733 24.9259 31.7086 24.9553 31.6374C24.9848 31.5663 25 31.49 25 31.4129V30.1864C25.5098 29.4635 25.7615 28.5901 25.7146 27.7067V27.716V20.5702C25.7146 20.2449 25.2733 19.961 24.648 19.8796V19.0451C25.0893 18.9184 25.3613 18.6824 25.3626 18.4278V12.0019H25.6532C25.7332 12.2045 25.9226 12.3472 26.1452 12.3592H27.2851C27.4552 12.3378 27.6103 12.2506 27.7169 12.1163C27.8236 11.9819 27.8734 11.8112 27.8557 11.6406V11.6433V8.06234C27.856 7.86995 27.7869 7.6839 27.661 7.5384L27.6623 7.53974C27.7882 7.39477 27.8574 7.20913 27.857 7.01713V6.29455C27.874 6.12489 27.8239 5.95531 27.7175 5.82204C27.6112 5.68878 27.4569 5.60238 27.2877 5.5813H26.1425C25.9723 5.60269 25.8173 5.68989 25.7107 5.82421C25.604 5.95853 25.5542 6.12928 25.5719 6.29988V6.29722V7.02246C25.5719 7.22244 25.6452 7.40642 25.7666 7.5464L25.7652 7.54507C25.7185 7.59746 25.6794 7.65627 25.6493 7.71972L25.6479 7.72372H25.3573V6.28922C25.3573 3.40022 24.5467 0.967174 23.4722 0.621881C22.8189 0.267255 18.7461 0.00461948 13.9306 0.00461948V0.00195312ZM4.13444 4.14414H23.7255C24.0708 4.14414 24.3587 4.38944 24.4254 4.71607L24.4267 4.72007C24.5627 5.39999 24.64 6.18256 24.64 6.9838V7.03446V7.0318V12.0005C24.64 12.3952 24.3201 12.7151 23.9255 12.7151H3.93179C3.74227 12.7151 3.56052 12.6398 3.42651 12.5058C3.2925 12.3718 3.21721 12.1901 3.21721 12.0005V6.98514C3.21721 6.1839 3.29453 5.40132 3.44252 4.64408L3.43052 4.72007C3.46263 4.55771 3.5501 4.41154 3.67799 4.3065C3.80589 4.20147 3.96627 4.14408 4.13177 4.14414H4.13444ZM5.00233 19.857H6.53282C6.72347 19.857 6.87811 20.0063 6.88878 20.1943V20.1956L7.14342 24.8377V24.8564C7.14342 25.0537 6.98344 25.2137 6.78613 25.2137H5.00233C4.90758 25.2137 4.8167 25.176 4.74969 25.109C4.68269 25.042 4.64504 24.9511 4.64504 24.8564V20.2143C4.64504 20.0169 4.80502 19.857 5.00233 19.857ZM21.3271 19.857H22.8576C23.0549 19.857 23.2149 20.0169 23.2149 20.2143V24.8524C23.2149 25.0497 23.0549 25.2097 22.8576 25.2097H21.0725C20.9777 25.2097 20.8868 25.172 20.8198 25.105C20.7528 25.038 20.7152 24.9471 20.7152 24.8524V24.8324L20.9698 20.1916C20.9831 20.0049 21.1378 19.8583 21.3258 19.8583L21.3271 19.857ZM8.03798 20.7102H19.8233C19.9219 20.7102 20.0019 20.7902 20.0019 20.8888V21.1021C20.0019 21.2008 19.9219 21.2808 19.8233 21.2808H8.03798C7.9906 21.2808 7.94516 21.262 7.91166 21.2285C7.87815 21.195 7.85933 21.1495 7.85933 21.1021V20.8888C7.85933 20.7902 7.93932 20.7102 8.03798 20.7102ZM8.10864 21.9954H19.7513C19.8499 21.9954 19.9299 22.0754 19.9299 22.174V22.3873C19.9299 22.486 19.8499 22.566 19.7513 22.566H8.10864C8.06126 22.566 8.01582 22.5472 7.98232 22.5137C7.94881 22.4802 7.92999 22.4347 7.92999 22.3873V22.174C7.92999 22.0754 8.00998 21.9954 8.10864 21.9954ZM8.18063 23.2806H19.6806C19.7793 23.2806 19.8593 23.3606 19.8593 23.4592V23.6725C19.8593 23.7712 19.7793 23.8512 19.6806 23.8512H8.18063C8.13474 23.8512 8.09062 23.8334 8.05755 23.8016C8.02448 23.7698 8.00504 23.7264 8.00332 23.6805V23.4672C8.00332 23.3686 8.08331 23.2886 8.18196 23.2886L8.18063 23.2806ZM8.25262 24.5657H19.6086C19.7073 24.5657 19.7873 24.6457 19.7873 24.7444V24.9577C19.7873 25.0564 19.7073 25.1363 19.6086 25.1363H8.25262C8.20524 25.1363 8.1598 25.1175 8.1263 25.084C8.0928 25.0505 8.07397 25.0051 8.07397 24.9577V24.7444C8.07397 24.6457 8.15396 24.5657 8.25262 24.5657Z" fill="#6841C7"/>
<g clip-path="url(#clip1_25_12775)">
<path fill-rule="evenodd" clip-rule="evenodd" d="M14.5181 10.5429C14.4029 10.7546 14.3226 10.9017 14.253 11.0057C14.1826 11.1109 14.1404 11.1445 14.113 11.1573C14.0302 11.196 13.9349 11.1973 13.851 11.161C13.8233 11.149 13.7801 11.1165 13.7068 11.0134C13.6343 10.9113 13.55 10.7666 13.4288 10.5582L12.0678 8.21627C11.8777 7.8891 11.7414 7.65432 11.6571 7.47677C11.5677 7.28859 11.5625 7.21386 11.5686 7.18689C11.5927 7.08098 11.6691 6.99464 11.7713 6.95778C11.7973 6.94839 11.8721 6.94447 12.0698 7.01022C12.2563 7.07226 12.506 7.17886 12.8539 7.32767L13.5229 7.61382L13.5411 7.62163C13.6161 7.65377 13.6797 7.68101 13.742 7.69891L13.7556 8.66537C13.7571 8.77102 13.8439 8.85545 13.9496 8.85397C14.0552 8.85248 14.1397 8.76563 14.1382 8.65999L14.1246 7.69353C14.1863 7.67389 14.2491 7.64486 14.3232 7.61063L14.3412 7.60231L15.002 7.29744C15.3456 7.13891 15.5921 7.02533 15.7768 6.95807C15.9725 6.88679 16.0474 6.8886 16.0737 6.89726C16.1769 6.93123 16.2556 7.01539 16.2827 7.12057C16.2896 7.14736 16.2865 7.22221 16.2025 7.41283C16.1232 7.59268 15.9936 7.83119 15.8127 8.16358L14.5181 10.5429ZM14.2751 11.5039C14.3996 11.4457 14.49 11.3396 14.571 11.2185C14.6516 11.0981 14.7401 10.9355 14.8495 10.7343L14.8495 10.7343L14.8542 10.7257L16.1488 8.34645L16.1535 8.33775C16.3287 8.01591 16.4661 7.76341 16.5526 7.56718C16.6351 7.37996 16.6965 7.19292 16.6533 7.02513C16.5937 6.79373 16.4204 6.60858 16.1934 6.53384C16.0288 6.47964 15.8381 6.52854 15.6459 6.59856C15.4444 6.67194 15.1833 6.79237 14.8507 6.94588L14.8417 6.95003L14.1809 7.25489C14.0507 7.31497 14.0153 7.32975 13.9813 7.33599C13.9463 7.34242 13.9104 7.34292 13.8752 7.33748C13.841 7.3322 13.8052 7.31842 13.6733 7.26203L13.0043 6.97589L12.9952 6.972C12.6584 6.8279 12.3941 6.71485 12.1906 6.64717C11.9964 6.58259 11.8044 6.53907 11.6414 6.59788C11.4167 6.67897 11.2486 6.86892 11.1956 7.10191C11.1571 7.27085 11.2237 7.45609 11.3115 7.64092C11.4035 7.83463 11.5479 8.08317 11.732 8.39996L11.737 8.40852L13.098 10.7504L13.1029 10.7589L13.1029 10.7589C13.218 10.9569 13.311 11.117 13.395 11.2351C13.4794 11.3538 13.5727 11.4573 13.6988 11.512C13.8832 11.592 14.093 11.589 14.2751 11.5039Z" fill="#6841C7"/>
</g>
</g>
<path d="M50.1505 1.20403V4.70363H43.4846V24.5346H39.7851V4.70363H33.1525V1.20403H50.1505Z" fill="#090318"/>
<path d="M58.6462 7.5033C58.8906 7.5033 60.3635 7.8477 60.4968 7.86992V10.7696C60.2524 10.7029 58.4684 10.7696 58.2462 10.7696C56.8686 10.7696 55.7132 11.1918 54.7799 12.0361C53.8467 12.8582 53.3801 14.0248 53.3801 15.5357V24.5346H49.8805V7.86992H53.3801V10.7029C53.7578 9.81414 54.4022 9.05867 55.3132 8.43652C56.2464 7.81437 57.3574 7.5033 58.6462 7.5033Z" fill="#090318"/>
<path d="M71.6423 7.86992H75.1419V24.5346H71.6423V22.8682C71.0424 23.4903 70.3424 24.0014 69.5425 24.4013C68.7649 24.7791 67.9205 24.9679 67.0095 24.9679C66.0318 24.9679 65.032 24.7679 64.0099 24.368C63.01 23.9458 62.1434 23.2015 61.4102 22.1349C60.6769 21.0684 60.3103 19.6352 60.3103 17.8354V7.86992H63.8099V17.8354C63.8099 19.2575 64.1987 20.2796 64.9764 20.9017C65.7763 21.5239 66.7095 21.835 67.7761 21.835C68.8204 21.835 69.7203 21.4683 70.4758 20.7351C71.2535 20.0018 71.6423 18.8131 71.6423 17.1688V7.86992Z" fill="#090318"/>
<path d="M92.2764 20.779C91.4765 21.9122 90.4544 22.8121 89.2101 23.4787C87.9658 24.1231 86.6215 24.4453 85.1772 24.4453C83.5996 24.4453 82.1331 24.0564 80.7777 23.2787C79.4445 22.4788 78.3891 21.4123 77.6114 20.0791C76.8337 18.7237 76.4449 17.2572 76.4449 15.6796C76.4449 14.102 76.8337 12.6467 77.6114 11.3135C78.3891 9.9803 79.4445 8.92487 80.7777 8.14718C82.1331 7.34728 83.5996 6.94732 85.1772 6.94732C86.5993 6.94732 87.9213 7.26951 89.1434 7.91388C90.3877 8.55825 91.4209 9.44703 92.2431 10.5802L89.3767 12.5133C88.8434 11.8467 88.2102 11.3357 87.4769 10.9802C86.7659 10.6247 85.9993 10.4469 85.1772 10.4469C84.2218 10.4469 83.3441 10.6802 82.5442 11.1468C81.7443 11.6134 81.111 12.2467 80.6444 13.0466C80.1778 13.8465 79.9445 14.7242 79.9445 15.6796C79.9445 16.6351 80.1778 17.5128 80.6444 18.3127C81.111 19.1126 81.7443 19.7569 82.5442 20.2458C83.3441 20.7124 84.2218 20.9457 85.1772 20.9457C85.9993 20.9457 86.7659 20.7679 87.4769 20.4124C88.2102 20.0347 88.8434 19.5236 89.3767 18.8793L92.2764 20.779Z" fill="#090318"/>
<path d="M108.847 24.5346H104.447L99.3479 17.9021L96.7149 20.7684V24.5346H93.2153V1.20403H96.7149V15.6357L103.714 7.86992H108.58L101.748 15.3024L108.847 24.5346Z" fill="#090318"/>
<path d="M112.852 20.4018C112.852 20.7795 112.93 21.0462 113.086 21.2017C113.263 21.335 113.541 21.4017 113.919 21.4017C114.208 21.4017 114.552 21.3683 114.952 21.3017V24.5346C113.974 24.668 113.286 24.7346 112.886 24.7346C111.752 24.7346 110.875 24.4347 110.253 23.8347C109.653 23.2348 109.353 22.1682 109.353 20.6351V1.20403H112.852V20.4018Z" fill="#090318"/>
<path d="M127.187 7.86992H130.887L124.787 24.8679C123.943 27.0232 122.799 28.6564 121.354 29.7674C119.91 30.8783 118.233 31.3561 116.322 31.2005V27.8343C116.433 27.8565 116.599 27.8676 116.822 27.8676C118.777 27.8676 120.288 26.6122 121.354 24.1014L113.889 7.86992H117.655L123.021 19.4352L127.187 7.86992Z" fill="#090318"/>
<path d="M140.665 4.17036C140.065 4.1037 139.532 4.07037 139.065 4.07037C138.243 4.07037 137.643 4.23701 137.266 4.57031C136.91 4.9036 136.732 5.51464 136.732 6.40343V7.86992H141.008L141.206 11.0362H136.732V24.5346H133.233V11.0362L129.308 10.8518L130.3 7.86992H133.233V6.17012C133.233 4.14814 133.633 2.7483 134.433 1.97061C135.255 1.17071 136.51 0.770752 138.199 0.770752C138.843 0.770752 139.665 0.826302 140.665 0.937401V4.17036Z" fill="#090318"/>
<path d="M147.768 19.0686C147.768 19.9574 147.945 20.5684 148.301 20.9017C148.679 21.235 149.278 21.4017 150.101 21.4017C150.567 21.4017 151.1 21.3683 151.7 21.3017V24.5346C150.7 24.6457 149.856 24.7013 149.167 24.7013C147.501 24.7013 146.268 24.3124 145.468 23.5348C144.668 22.7348 144.268 21.3239 144.268 19.3019V11.0362H140.835V7.86992H144.268V3.53709L147.768 2.33724V7.86992H151.634V11.0362H147.768V19.0686Z" fill="#090318"/>
<path d="M92.2764 20.779C91.4765 21.9122 90.4544 22.8121 89.2101 23.4787C87.9658 24.1231 86.6215 24.4453 85.1772 24.4453C83.5996 24.4453 82.1331 24.0564 80.7777 23.2787C79.4445 22.4788 78.3891 21.4123 77.6114 20.0791C76.8337 18.7237 76.4449 17.2572 76.4449 15.6796C76.4449 14.102 76.8337 12.6467 77.6114 11.3135C78.3891 9.9803 79.4445 8.92487 80.7777 8.14718C82.1331 7.34728 83.5996 6.94732 85.1772 6.94732C86.5993 6.94732 87.9213 7.26951 89.1434 7.91388C90.3877 8.55825 91.4209 9.44703 92.2431 10.5802L89.3767 12.5133C88.8434 11.8467 88.2102 11.3357 87.4769 10.9802C86.7659 10.6247 85.9993 10.4469 85.1772 10.4469C84.2218 10.4469 83.3441 10.6802 82.5442 11.1468C81.7443 11.6134 81.111 12.2467 80.6444 13.0466C80.1778 13.8465 79.9445 14.7242 79.9445 15.6796C79.9445 16.6351 80.1778 17.5128 80.6444 18.3127C81.111 19.1126 81.7443 19.7569 82.5442 20.2458C83.3441 20.7124 84.2218 20.9457 85.1772 20.9457C85.9993 20.9457 86.7659 20.7679 87.4769 20.4124C88.2102 20.0347 88.8434 19.5236 89.3767 18.8793L92.2764 20.779Z" fill="#090318"/>
<defs>
<clipPath id="clip0_25_12775">
<rect width="27.9967" height="31.9963" fill="white" transform="translate(0 0.00195312)"/>
</clipPath>
<clipPath id="clip1_25_12775">
<rect width="6.12183" height="6.12183" fill="white" transform="translate(18.2651 7.88037) rotate(134.194)"/>
</clipPath>
</defs>
</svg>
