<svg width="24" height="24" viewBox="0 0 24 24" fill="none" xmlns="http://www.w3.org/2000/svg">
<path fill-rule="evenodd" clip-rule="evenodd" d="M5.16957 1.25L5.2 1.25H6.8L6.83044 1.25C7.36459 1.24999 7.81044 1.24998 8.17467 1.27974C8.55456 1.31078 8.91121 1.37789 9.24848 1.54973C9.76592 1.81338 10.1866 2.23408 10.4503 2.75153C10.6221 3.08879 10.6892 3.44545 10.7203 3.82533C10.75 4.18955 10.75 4.63538 10.75 5.16951V5.16955V5.2V6.8V6.83045V6.83049C10.75 7.36462 10.75 7.81045 10.7203 8.17467C10.6892 8.55456 10.6221 8.91121 10.4503 9.24848C10.1866 9.76592 9.76592 10.1866 9.24848 10.4503C8.91121 10.6221 8.55456 10.6892 8.17467 10.7203C7.81045 10.75 7.36462 10.75 6.83049 10.75H6.83045H6.8H5.2H5.16955H5.16951C4.63538 10.75 4.18955 10.75 3.82533 10.7203C3.44545 10.6892 3.08879 10.6221 2.75153 10.4503C2.23408 10.1866 1.81338 9.76592 1.54973 9.24848C1.37789 8.91121 1.31078 8.55456 1.27974 8.17467C1.24998 7.81044 1.24999 7.36459 1.25 6.83044L1.25 6.8V5.2L1.25 5.16957C1.24999 4.63541 1.24998 4.18956 1.27974 3.82533C1.31078 3.44545 1.37789 3.08879 1.54973 2.75153C1.81338 2.23408 2.23408 1.81338 2.75153 1.54973C3.08879 1.37789 3.44545 1.31078 3.82533 1.27974C4.18956 1.24998 4.63541 1.24999 5.16957 1.25ZM17.2 1.25L17.1696 1.25C16.6354 1.24999 16.1896 1.24998 15.8253 1.27974C15.4454 1.31078 15.0888 1.37789 14.7515 1.54973C14.2341 1.81338 13.8134 2.23408 13.5497 2.75153C13.3779 3.08879 13.3108 3.44545 13.2797 3.82533C13.25 4.18956 13.25 4.63541 13.25 5.16957V5.2V6.8V6.83044C13.25 7.36459 13.25 7.81044 13.2797 8.17467C13.3108 8.55456 13.3779 8.91121 13.5497 9.24848C13.8134 9.76592 14.2341 10.1866 14.7515 10.4503C15.0888 10.6221 15.4454 10.6892 15.8253 10.7203C16.1895 10.75 16.6354 10.75 17.1695 10.75H17.1695H17.2H18.8H18.8305H18.8305C19.3646 10.75 19.8105 10.75 20.1747 10.7203C20.5546 10.6892 20.9112 10.6221 21.2485 10.4503C21.7659 10.1866 22.1866 9.76592 22.4503 9.24848C22.6221 8.91121 22.6892 8.55456 22.7203 8.17467C22.75 7.81046 22.75 7.36465 22.75 6.83054V6.83045V6.8V5.2V5.16955V5.16946C22.75 4.63535 22.75 4.18954 22.7203 3.82533C22.6892 3.44545 22.6221 3.08879 22.4503 2.75153C22.1866 2.23408 21.7659 1.81338 21.2485 1.54973C20.9112 1.37789 20.5546 1.31078 20.1747 1.27974C19.8104 1.24998 19.3646 1.24999 18.8304 1.25L18.8 1.25H17.2ZM5.16957 13.25H5.2H6.8H6.83044C7.36459 13.25 7.81044 13.25 8.17467 13.2797C8.55456 13.3108 8.91121 13.3779 9.24848 13.5497C9.76592 13.8134 10.1866 14.2341 10.4503 14.7515C10.6221 15.0888 10.6892 15.4454 10.7203 15.8253C10.75 16.1895 10.75 16.6354 10.75 17.1695V17.1695V17.2V18.8V18.8305V18.8305C10.75 19.3646 10.75 19.8105 10.7203 20.1747C10.6892 20.5546 10.6221 20.9112 10.4503 21.2485C10.1866 21.7659 9.76592 22.1866 9.24848 22.4503C8.91121 22.6221 8.55456 22.6892 8.17467 22.7203C7.81046 22.75 7.36465 22.75 6.83054 22.75H6.83045H6.8H5.2H5.16955H5.16946C4.63535 22.75 4.18954 22.75 3.82533 22.7203C3.44545 22.6892 3.08879 22.6221 2.75153 22.4503C2.23408 22.1866 1.81338 21.7659 1.54973 21.2485C1.37789 20.9112 1.31078 20.5546 1.27974 20.1747C1.24998 19.8104 1.24999 19.3646 1.25 18.8304L1.25 18.8V17.2L1.25 17.1696C1.24999 16.6354 1.24998 16.1896 1.27974 15.8253C1.31078 15.4454 1.37789 15.0888 1.54973 14.7515C1.81338 14.2341 2.23408 13.8134 2.75153 13.5497C3.08879 13.3779 3.44545 13.3108 3.82533 13.2797C4.18956 13.25 4.63541 13.25 5.16957 13.25ZM17.2 13.25H17.1696C16.6354 13.25 16.1896 13.25 15.8253 13.2797C15.4454 13.3108 15.0888 13.3779 14.7515 13.5497C14.2341 13.8134 13.8134 14.2341 13.5497 14.7515C13.3779 15.0888 13.3108 15.4454 13.2797 15.8253C13.25 16.1896 13.25 16.6354 13.25 17.1696V17.2V18.8V18.8304C13.25 19.3646 13.25 19.8104 13.2797 20.1747C13.3108 20.5546 13.3779 20.9112 13.5497 21.2485C13.8134 21.7659 14.2341 22.1866 14.7515 22.4503C15.0888 22.6221 15.4454 22.6892 15.8253 22.7203C16.1895 22.75 16.6354 22.75 17.1695 22.75H17.1695H17.2H18.8H18.8305H18.8305C19.3646 22.75 19.8105 22.75 20.1747 22.7203C20.5546 22.6892 20.9112 22.6221 21.2485 22.4503C21.7659 22.1866 22.1866 21.7659 22.4503 21.2485C22.6221 20.9112 22.6892 20.5546 22.7203 20.1747C22.75 19.8105 22.75 19.3646 22.75 18.8305V18.8305V18.8V17.2V17.1695V17.1695C22.75 16.6354 22.75 16.1895 22.7203 15.8253C22.6892 15.4454 22.6221 15.0888 22.4503 14.7515C22.1866 14.2341 21.7659 13.8134 21.2485 13.5497C20.9112 13.3779 20.5546 13.3108 20.1747 13.2797C19.8104 13.25 19.3646 13.25 18.8304 13.25H18.8H17.2Z" fill="#9C9AA2"/>
</svg>
