<svg width="49" height="48" viewBox="0 0 49 48" fill="none" xmlns="http://www.w3.org/2000/svg">
<rect x="0.666687" width="48" height="48" rx="24" fill="#00C44E" fill-opacity="0.1"/>
<path d="M36 29.91C36.02 30.66 35.82 31.37 35.46 31.98C35.26 32.34 34.99 32.6701 34.69 32.9401C34 33.5801 33.09 33.9701 32.08 34.0001C30.62 34.0301 29.33 33.2801 28.62 32.1301C28.24 31.5401 28.01 30.8301 28 30.0801C27.97 28.8201 28.53 27.6801 29.43 26.9301C30.11 26.3701 30.97 26.0201 31.91 26.0001C34.12 25.9501 35.95 27.7 36 29.91Z" stroke="#00C44E" stroke-width="1.5" stroke-miterlimit="10" stroke-linecap="round" stroke-linejoin="round"/>
<path d="M30.44 30.03L31.45 30.99L33.54 28.97" stroke="#00C44E" stroke-width="1.5" stroke-linecap="round" stroke-linejoin="round"/>
<path d="M16.17 19.4399L25 24.5499L33.77 19.4699" stroke="#00C44E" stroke-width="1.5" stroke-linecap="round" stroke-linejoin="round"/>
<path d="M25 33.61V24.54" stroke="#00C44E" stroke-width="1.5" stroke-linecap="round" stroke-linejoin="round"/>
<path d="M34.61 21.17V26.83C34.61 26.88 34.61 26.92 34.6 26.97C33.9 26.36 33 26 32 26C31.06 26 30.19 26.33 29.5 26.88C28.58 27.61 28 28.74 28 30C28 30.75 28.21 31.46 28.58 32.06C28.67 32.22 28.78 32.37 28.9 32.51L27.07 33.52C25.93 34.16 24.07 34.16 22.93 33.52L17.59 30.56C16.38 29.89 15.39 28.21 15.39 26.83V21.17C15.39 19.79 16.38 18.11 17.59 17.44L22.93 14.48C24.07 13.84 25.93 13.84 27.07 14.48L32.41 17.44C33.62 18.11 34.61 19.79 34.61 21.17Z" stroke="#00C44E" stroke-width="1.5" stroke-linecap="round" stroke-linejoin="round"/>
</svg>
