<svg width="24" height="24" viewBox="0 0 24 24" fill="none" xmlns="http://www.w3.org/2000/svg">
<path d="M6.17 5.15001H6.27614L6.31145 5.04992C6.50773 4.49365 6.87171 4.01196 7.35324 3.67125C7.83477 3.33053 8.41012 3.14756 9 3.14756C9.58988 3.14756 10.1652 3.33053 10.6468 3.67125C11.1283 4.01196 11.4923 4.49365 11.6885 5.04992L11.7239 5.15001H11.83H19C19.2254 5.15001 19.4416 5.23956 19.601 5.39897C19.7604 5.55837 19.85 5.77457 19.85 6.00001C19.85 6.22544 19.7604 6.44164 19.601 6.60105C19.4416 6.76046 19.2254 6.85001 19 6.85001H11.83H11.7239L11.6885 6.9501C11.4923 7.50636 11.1283 7.98806 10.6468 8.32877C10.1652 8.66949 9.58988 8.85246 9 8.85246C8.41012 8.85246 7.83477 8.66949 7.35324 8.32877C6.87171 7.98806 6.50773 7.50636 6.31145 6.9501L6.27614 6.85001H6.17H5C4.77457 6.85001 4.55837 6.76046 4.39896 6.60105C4.23955 6.44164 4.15 6.22544 4.15 6.00001C4.15 5.77457 4.23955 5.55837 4.39896 5.39897C4.55837 5.23956 4.77457 5.15001 5 5.15001H6.17ZM12.17 11.15H12.2761L12.3115 11.0499C12.5077 10.4937 12.8717 10.012 13.3532 9.67125C13.8348 9.33053 14.4101 9.14756 15 9.14756C15.5899 9.14756 16.1652 9.33053 16.6468 9.67125C17.1283 10.012 17.4923 10.4937 17.6885 11.0499L17.7239 11.15H17.83H19C19.2254 11.15 19.4416 11.2396 19.601 11.399C19.7604 11.5584 19.85 11.7746 19.85 12C19.85 12.2254 19.7604 12.4416 19.601 12.601C19.4416 12.7605 19.2254 12.85 19 12.85H17.83H17.7239L17.6885 12.9501C17.4923 13.5064 17.1283 13.9881 16.6468 14.3288C16.1652 14.6695 15.5899 14.8525 15 14.8525C14.4101 14.8525 13.8348 14.6695 13.3532 14.3288C12.8717 13.9881 12.5077 13.5064 12.3115 12.9501L12.2761 12.85H12.17H5C4.77457 12.85 4.55837 12.7605 4.39896 12.601C4.23955 12.4416 4.15 12.2254 4.15 12C4.15 11.7746 4.23955 11.5584 4.39896 11.399C4.55837 11.2396 4.77457 11.15 5 11.15H12.17ZM6.17 17.15H6.27614L6.31145 17.0499C6.50773 16.4937 6.87172 16.012 7.35324 15.6712C7.83477 15.3305 8.41012 15.1476 9 15.1476C9.58988 15.1476 10.1652 15.3305 10.6468 15.6712C11.1283 16.012 11.4923 16.4937 11.6885 17.0499L11.7239 17.15H11.83H19C19.2254 17.15 19.4416 17.2396 19.601 17.399C19.7604 17.5584 19.85 17.7746 19.85 18C19.85 18.2254 19.7604 18.4416 19.601 18.6011C19.4416 18.7605 19.2254 18.85 19 18.85H11.83H11.7239L11.6885 18.9501C11.4923 19.5064 11.1283 19.9881 10.6468 20.3288C10.1652 20.6695 9.58988 20.8525 9 20.8525C8.41012 20.8525 7.83477 20.6695 7.35324 20.3288C6.87171 19.9881 6.50773 19.5064 6.31145 18.9501L6.27614 18.85H6.17H5C4.77457 18.85 4.55837 18.7605 4.39896 18.6011C4.23955 18.4416 4.15 18.2254 4.15 18C4.15 17.7746 4.23955 17.5584 4.39896 17.399C4.55837 17.2396 4.77457 17.15 5 17.15H6.17ZM9 4.85001C8.695 4.85001 8.40249 4.97117 8.18683 5.18684C7.97116 5.4025 7.85 5.69501 7.85 6.00001C7.85 6.30501 7.97116 6.59751 8.18683 6.81318C8.40249 7.02885 8.695 7.15001 9 7.15001C9.305 7.15001 9.59751 7.02885 9.81317 6.81318C10.0288 6.59751 10.15 6.30501 10.15 6.00001C10.15 5.69501 10.0288 5.4025 9.81317 5.18684C9.59751 4.97117 9.305 4.85001 9 4.85001ZM15 10.85C14.695 10.85 14.4025 10.9712 14.1868 11.1868C13.9712 11.4025 13.85 11.695 13.85 12C13.85 12.305 13.9712 12.5975 14.1868 12.8132C14.4025 13.0288 14.695 13.15 15 13.15C15.305 13.15 15.5975 13.0288 15.8132 12.8132C16.0288 12.5975 16.15 12.305 16.15 12C16.15 11.695 16.0288 11.4025 15.8132 11.1868C15.5975 10.9712 15.305 10.85 15 10.85ZM9 16.85C8.695 16.85 8.40249 16.9712 8.18683 17.1868C7.97116 17.4025 7.85 17.695 7.85 18C7.85 18.305 7.97116 18.5975 8.18683 18.8132C8.40249 19.0289 8.695 19.15 9 19.15C9.305 19.15 9.59751 19.0289 9.81317 18.8132C10.0288 18.5975 10.15 18.305 10.15 18C10.15 17.695 10.0288 17.4025 9.81317 17.1868C9.59751 16.9712 9.305 16.85 9 16.85Z" fill="#6841C7" stroke="white" stroke-width="0.3"/>
</svg>
