<svg width="24" height="24" viewBox="0 0 24 24" fill="none" xmlns="http://www.w3.org/2000/svg">
<path d="M12 8.24999C11.0054 8.24999 10.0516 8.64508 9.34834 9.34834C8.64508 10.0516 8.24999 11.0054 8.24999 12C8.24999 12.9946 8.64508 13.9484 9.34834 14.6516C10.0516 15.3549 11.0054 15.75 12 15.75C12.9946 15.75 13.9484 15.3549 14.6516 14.6516C15.3549 13.9484 15.75 12.9946 15.75 12C15.75 11.0054 15.3549 10.0516 14.6516 9.34834C13.9484 8.64508 12.9946 8.24999 12 8.24999ZM9.49999 12C9.49999 11.3369 9.76338 10.7011 10.2322 10.2322C10.7011 9.76338 11.3369 9.49999 12 9.49999C12.663 9.49999 13.2989 9.76338 13.7678 10.2322C14.2366 10.7011 14.5 11.3369 14.5 12C14.5 12.663 14.2366 13.2989 13.7678 13.7678C13.2989 14.2366 12.663 14.5 12 14.5C11.3369 14.5 10.7011 14.2366 10.2322 13.7678C9.76338 13.2989 9.49999 12.663 9.49999 12ZM9.74699 21.734C10.4865 21.9105 11.2435 21.9995 12.0035 21.9995C12.7618 21.9987 13.5175 21.9091 14.255 21.7325C14.4489 21.6858 14.6237 21.5805 14.7555 21.4309C14.8874 21.2813 14.97 21.0947 14.992 20.8965L15.161 19.361C15.1895 19.0864 15.3152 18.831 15.5153 18.6408C15.7154 18.4506 15.9768 18.3381 16.2525 18.3235C16.436 18.3155 16.6185 18.35 16.7865 18.4235L18.19 19.039C18.312 19.0939 18.4442 19.1227 18.578 19.1235C18.7118 19.1244 18.8443 19.0973 18.967 19.044C19.0905 18.9915 19.201 18.9135 19.292 18.815C20.324 17.7026 21.0944 16.3738 21.547 14.9255C21.6062 14.7334 21.6044 14.5276 21.5417 14.3365C21.479 14.1455 21.3586 13.9786 21.197 13.859L19.95 12.939C19.8015 12.8311 19.6806 12.6896 19.5972 12.5261C19.5139 12.3625 19.4704 12.1816 19.4704 11.998C19.4704 11.8144 19.5139 11.6335 19.5972 11.4699C19.6806 11.3064 19.8015 11.1649 19.95 11.057L21.193 10.139C21.355 10.0191 21.4757 9.85183 21.5384 9.6603C21.6011 9.46876 21.6027 9.26247 21.543 9.06999C21.0903 7.62152 20.3189 6.29284 19.2855 5.18149C19.1486 5.03514 18.9696 4.9349 18.7733 4.8946C18.577 4.8543 18.373 4.87592 18.1895 4.95649L16.7865 5.57449C16.6415 5.63999 16.4835 5.67449 16.3235 5.67449C16.0355 5.67392 15.7578 5.56706 15.5438 5.3744C15.3297 5.18174 15.1943 4.91684 15.1635 4.63049L14.9935 3.10049C14.9717 2.89968 14.8877 2.71069 14.7533 2.55998C14.6188 2.40927 14.4405 2.30438 14.2435 2.25999C13.5097 2.09617 12.7608 2.0092 12.009 2.00049C11.252 2.00922 10.498 2.09636 9.75899 2.26049C9.56217 2.30463 9.38407 2.40918 9.24959 2.55953C9.11512 2.70987 9.03099 2.89848 9.00899 3.09899L8.83899 4.62999C8.80691 4.9168 8.67019 5.1817 8.45499 5.37399C8.23537 5.56056 7.95855 5.66641 7.67049 5.67399C7.51161 5.67388 7.35447 5.64085 7.20899 5.57699L5.80899 4.95899C5.62488 4.8777 5.42003 4.85578 5.22289 4.89629C5.02575 4.93679 4.84613 5.0377 4.70899 5.18499C3.67702 6.29659 2.90657 7.6248 2.45399 9.07249C2.3942 9.26489 2.39578 9.47112 2.45849 9.66259C2.52121 9.85405 2.64196 10.0212 2.80399 10.141L4.04799 11.059C4.27022 11.2232 4.42726 11.4607 4.4914 11.7295C4.55553 11.9983 4.52262 12.2811 4.39849 12.528C4.31594 12.6917 4.19604 12.8337 4.04849 12.9425L2.80349 13.862C2.6416 13.9816 2.52093 14.1486 2.45822 14.3399C2.39551 14.5312 2.39385 14.7372 2.45349 14.9295C2.90527 16.3786 3.67578 17.7081 4.70849 18.8205C4.84491 18.9677 5.02387 19.0687 5.22042 19.1094C5.41697 19.1501 5.62132 19.1285 5.80499 19.0475L7.21399 18.429C7.35949 18.365 7.51649 18.332 7.67549 18.332H7.67949C7.96641 18.3324 8.24317 18.4382 8.45707 18.6295C8.67098 18.8207 8.80709 19.0839 8.83949 19.369L9.00849 20.8975C9.0305 21.096 9.11324 21.2828 9.24541 21.4326C9.37759 21.5823 9.55275 21.6875 9.74699 21.734ZM13.779 20.5615C12.609 20.8115 11.399 20.8115 10.229 20.5615L10.077 19.2305C10.0109 18.6399 9.72972 18.0943 9.28707 17.6977C8.84441 17.3012 8.27128 17.0815 7.67699 17.0805H7.67199C7.34054 17.0791 7.01248 17.1473 6.70899 17.2805L5.48599 17.817C4.69263 16.9222 4.08729 15.877 3.70599 14.7435L4.78849 13.9435C5.09354 13.7186 5.3415 13.4251 5.51238 13.0868C5.68326 12.7485 5.77229 12.3748 5.77229 11.9957C5.77229 11.6167 5.68326 11.243 5.51238 10.9047C5.3415 10.5664 5.09354 10.2729 4.78849 10.048L3.70649 9.24799C4.08852 8.11579 4.69398 7.07183 5.48699 6.17799L6.70299 6.71399C7.00698 6.84881 7.33594 6.91814 7.66849 6.91749H7.67349C8.26919 6.91625 8.8436 6.69579 9.28716 6.29815C9.73073 5.90051 10.0124 5.35352 10.0785 4.76149L10.2285 3.43149C10.8151 3.31395 11.4113 3.25101 12.0095 3.24349C12.603 3.25099 13.1945 3.31349 13.7765 3.43099L13.9265 4.76049C13.9907 5.35249 14.271 5.89998 14.7139 6.29802C15.1568 6.69606 15.731 6.91664 16.3265 6.91749C16.6623 6.92542 16.9954 6.85525 17.2995 6.71249L18.5145 6.17699C19.308 7.07076 19.9136 8.11495 20.2955 9.24749L19.217 10.044C18.9098 10.2679 18.6598 10.5613 18.4874 10.9001C18.3151 11.239 18.2253 11.6138 18.2253 11.994C18.2253 12.3742 18.3151 12.749 18.4874 13.0878C18.6598 13.4267 18.9098 13.7201 19.217 13.944L20.2995 14.744C19.9172 15.876 19.312 16.9199 18.5195 17.814L17.2995 17.279C16.9522 17.1249 16.5733 17.0551 16.1939 17.0753C15.8145 17.0956 15.4452 17.2052 15.1162 17.3954C14.7873 17.5855 14.5079 17.8507 14.301 18.1694C14.094 18.488 13.9654 18.8511 13.9255 19.229L13.779 20.5615Z" fill="#6841C7"/>
</svg>
