<svg width="24" height="24" viewBox="0 0 24 24" fill="none" xmlns="http://www.w3.org/2000/svg">
<path d="M16.95 5.45032C16.9501 4.38318 16.6053 3.34459 15.967 2.48937C15.3288 1.63415 14.4312 1.00809 13.4082 0.704518C12.3851 0.400944 11.2914 0.43611 10.2899 0.804775C9.28849 1.17344 8.43301 1.85586 7.851 2.75032H4.8C4.56131 2.75032 4.33239 2.84514 4.1636 3.01392C3.99482 3.1827 3.9 3.41162 3.9 3.65032L16.95 5.45032ZM16.95 5.45032C16.9506 6.55993 16.5783 7.63756 15.8929 8.51021C15.2075 9.38286 14.2488 9.99992 13.1707 10.2623C12.0925 10.5248 10.9575 10.4173 9.94773 9.95729C8.96843 9.51112 8.16206 8.75838 7.64956 7.81417L16.95 5.45032ZM16.85 5.45031V5.45037C16.8505 6.53757 16.4858 7.59342 15.8142 8.44844C15.1427 9.30346 14.2034 9.90806 13.147 10.1652C12.0907 10.4223 10.9785 10.317 9.98919 9.86629C8.99983 9.41553 8.19062 8.64543 7.69144 7.6796L7.6411 7.5822L7.54873 7.64127C7.14481 7.89957 6.6648 8.05031 6.15 8.05031H5.7H5.6V8.15031V9.05031C5.60003 9.28674 5.68382 9.5155 5.8365 9.696C5.98917 9.87651 6.20086 9.99708 6.434 10.0363L6.49043 10.0458L6.52721 10.002C6.63563 9.87276 6.77489 9.77295 6.9321 9.71179C7.08931 9.65063 7.25941 9.63009 7.42666 9.65207C7.59392 9.67406 7.75293 9.73785 7.88899 9.83756C8.02506 9.93727 8.13379 10.0697 8.20514 10.2225C8.27648 10.3754 8.30814 10.5438 8.29717 10.7121C8.28621 10.8805 8.23299 11.0433 8.14242 11.1856C8.05185 11.3279 7.92687 11.4451 7.77902 11.5263C7.63117 11.6076 7.46523 11.6502 7.29654 11.6503H6.6C5.91044 11.6503 5.24912 11.3764 4.76152 10.8888C4.27393 10.4012 4 9.73988 4 9.05031V7.43312H4.01782L4.00272 7.3199C4.00015 7.3006 4 7.2803 4 7.25032V3.65032C4 3.43814 4.08429 3.23466 4.23431 3.08463C4.38434 2.9346 4.58783 2.85032 4.8 2.85032H7.851H7.90524L7.93482 2.80485C8.50507 1.92847 9.34326 1.25983 10.3245 0.898618C11.3057 0.537401 12.3773 0.502945 13.3797 0.800387C14.3821 1.09783 15.2615 1.71124 15.8869 2.54918C16.5122 3.38713 16.8501 4.40473 16.85 5.45031ZM5.6 6.35032V6.45031H5.7H6.15C6.41522 6.45031 6.66957 6.34496 6.85711 6.15742C7.04464 5.96989 7.15 5.71553 7.15 5.45032V4.55031V4.45031H7.05H5.7H5.6V4.55031V6.35032ZM20.1385 13.0618C20.6261 13.5494 20.9 14.2108 20.9 14.9003V15.8003C20.9 19.2811 17.6093 22.9003 12 22.9003C6.39071 22.9003 3.1 19.2811 3.1 15.8003V14.9003C3.1 14.2108 3.37393 13.5494 3.86152 13.0618C4.34912 12.5742 5.01044 12.3003 5.7 12.3003H18.3C18.9896 12.3003 19.6509 12.5742 20.1385 13.0618ZM4.99289 14.1932C4.80536 14.3807 4.7 14.6351 4.7 14.9003V15.8003C4.7 18.4596 7.33943 21.3003 12 21.3003C16.6606 21.3003 19.3 18.4596 19.3 15.8003V14.9003C19.3 14.6351 19.1946 14.3807 19.0071 14.1932C18.8196 14.0057 18.5652 13.9003 18.3 13.9003H5.7C5.43478 13.9003 5.18043 14.0057 4.99289 14.1932ZM9.7019 3.15222C9.09241 3.76171 8.75 4.58836 8.75 5.45032C8.75 6.31227 9.09241 7.13892 9.7019 7.74841C10.3114 8.35791 11.138 8.70032 12 8.70032C12.862 8.70032 13.6886 8.35791 14.2981 7.74841C14.9076 7.13892 15.25 6.31227 15.25 5.45032C15.25 4.58836 14.9076 3.76171 14.2981 3.15222C13.6886 2.54273 12.862 2.20032 12 2.20032C11.138 2.20032 10.3114 2.54273 9.7019 3.15222Z" fill="#6841C7" stroke="#6841C7" stroke-width="0.2"/>
</svg>
