<svg width="48" height="48" viewBox="0 0 48 48" fill="none" xmlns="http://www.w3.org/2000/svg">
<rect width="48" height="48" rx="24" fill="#6841C7" fill-opacity="0.1"/>
<path d="M15.17 19.4399L24 24.5499L32.77 19.4699" stroke="#6841C7" stroke-width="1.5" stroke-linecap="round" stroke-linejoin="round"/>
<path d="M24 33.61V24.54" stroke="#6841C7" stroke-width="1.5" stroke-linecap="round" stroke-linejoin="round"/>
<path d="M21.93 14.48L16.59 17.44C15.38 18.11 14.39 19.79 14.39 21.17V26.82C14.39 28.2 15.38 29.88 16.59 30.55L21.93 33.52C23.07 34.15 24.94 34.15 26.08 33.52L31.42 30.55C32.63 29.88 33.62 28.2 33.62 26.82V21.17C33.62 19.79 32.63 18.11 31.42 17.44L26.08 14.47C24.93 13.84 23.07 13.84 21.93 14.48Z" stroke="#6841C7" stroke-width="1.5" stroke-linecap="round" stroke-linejoin="round"/>
</svg>
