<svg width="223" height="48" viewBox="0 0 223 48" fill="none" xmlns="http://www.w3.org/2000/svg">
<g clip-path="url(#clip0_84_6945)">
<path d="M20.4786 0.48291C13.345 0.48291 7.3285 0.876825 6.43093 1.40008C4.86311 1.9351 3.68332 5.49601 3.6794 9.72128V11.8202H3.25217C3.20843 11.7238 3.15028 11.6346 3.07971 11.5556C3.26477 11.3425 3.36641 11.0696 3.36584 10.7874V9.72128C3.39078 9.47188 3.31722 9.2226 3.16086 9.0267C3.0045 8.83079 2.77775 8.70379 2.52902 8.6728H0.847531C0.597371 8.70425 0.36948 8.83243 0.212692 9.02988C0.0559044 9.22733 -0.0173064 9.47834 0.00874797 9.72912V9.7252V10.7913C0.00874797 11.0853 0.116536 11.3557 0.294875 11.5615L0.292915 11.5596C0.107856 11.7726 0.00621537 12.0455 0.0067882 12.3278V17.5917C0.00286865 17.6211 0.00286865 17.6525 0.00286865 17.6858C0.00286865 18.1757 0.369346 18.5814 0.843611 18.6402H2.52706C2.6847 18.6321 2.8367 18.5788 2.96491 18.4868C3.09313 18.3947 3.19217 18.2677 3.25021 18.1209L3.25217 18.115H3.6794V27.565C3.6794 27.9393 4.08116 28.2862 4.72984 28.4724V29.6992C3.80287 29.8188 3.16202 30.2362 3.16202 30.7144V41.2188C3.09614 42.5205 3.47029 43.8066 4.22422 44.8698L4.21246 44.8522V46.6571C4.21246 47.1334 4.59854 47.5194 5.07476 47.5194H8.59843C8.82713 47.5194 9.04646 47.4286 9.20817 47.2669C9.36989 47.1052 9.46074 46.8858 9.46074 46.6571V45.4205H31.5023V46.6571C31.5023 47.1334 31.8884 47.5194 32.3646 47.5194H35.8883C36.0015 47.5194 36.1137 47.4971 36.2183 47.4538C36.3229 47.4105 36.4179 47.347 36.498 47.2669C36.5781 47.1868 36.6416 47.0917 36.6849 46.9871C36.7283 46.8825 36.7506 46.7704 36.7506 46.6571V44.8541C37.5 43.7915 37.8701 42.5075 37.801 41.209V41.2227V30.7183C37.801 30.2401 37.1523 29.8227 36.2332 29.7031V28.4763C36.8819 28.2901 37.2817 27.9433 37.2836 27.5689V18.1228H37.7109C37.8285 18.4207 38.1067 18.6304 38.434 18.6481H40.1096C40.3598 18.6166 40.5877 18.4884 40.7445 18.291C40.9013 18.0935 40.9745 17.8425 40.9484 17.5917V17.5957V12.3317C40.9489 12.0489 40.8473 11.7754 40.6623 11.5615L40.6642 11.5635C40.8493 11.3504 40.9509 11.0775 40.9504 10.7952V9.73304C40.9753 9.48363 40.9018 9.23436 40.7454 9.03846C40.589 8.84255 40.3623 8.71555 40.1136 8.68456H38.4301C38.1799 8.71601 37.9521 8.84419 37.7953 9.04164C37.6385 9.23909 37.5653 9.4901 37.5913 9.74088V9.73696V10.8031C37.5913 11.097 37.6991 11.3675 37.8774 11.5733L37.8755 11.5713C37.8067 11.6483 37.7493 11.7348 37.705 11.828L37.703 11.8339H37.2758V9.7252C37.2758 5.47837 36.0843 1.90179 34.5047 1.3942C33.5444 0.872905 27.5573 0.48683 20.4786 0.48683V0.48291ZM6.07817 6.57193H34.877C35.3846 6.57193 35.8079 6.93253 35.9059 7.41267L35.9079 7.41855C36.1078 8.41803 36.2214 9.56842 36.2214 10.7462V10.8207V10.8168V18.1209C36.2214 18.701 35.7511 19.1713 35.171 19.1713H5.78028C5.50169 19.1713 5.2345 19.0606 5.03751 18.8636C4.84051 18.6667 4.72984 18.3995 4.72984 18.1209V10.7482C4.72984 9.57038 4.84351 8.41999 5.06104 7.30684L5.04341 7.41855C5.09061 7.17989 5.21919 6.96502 5.40719 6.81061C5.5952 6.6562 5.83096 6.57184 6.07425 6.57193H6.07817ZM7.35398 29.6698H9.6038C9.88405 29.6698 10.1114 29.8893 10.1271 30.1656V30.1676L10.5014 36.9915V37.019C10.5014 37.309 10.2662 37.5442 9.97616 37.5442H7.35398C7.21468 37.5442 7.08109 37.4889 6.98259 37.3904C6.88409 37.2919 6.82876 37.1583 6.82876 37.019V30.195C6.82876 29.905 7.06393 29.6698 7.35398 29.6698ZM31.3514 29.6698H33.6012C33.8913 29.6698 34.1264 29.905 34.1264 30.195V37.0131C34.1264 37.3031 33.8913 37.5383 33.6012 37.5383H30.9771C30.8378 37.5383 30.7042 37.483 30.6057 37.3845C30.5072 37.286 30.4519 37.1524 30.4519 37.0131V36.9837L30.8262 30.1617C30.8458 29.8874 31.0731 29.6718 31.3494 29.6718L31.3514 29.6698ZM11.8164 30.9241H29.1408C29.2858 30.9241 29.4034 31.0417 29.4034 31.1867V31.5002C29.4034 31.6453 29.2858 31.7629 29.1408 31.7629H11.8164C11.7467 31.7629 11.6799 31.7352 11.6307 31.6859C11.5814 31.6367 11.5538 31.5699 11.5538 31.5002V31.1867C11.5538 31.0417 11.6714 30.9241 11.8164 30.9241ZM11.9202 32.8133H29.035C29.18 32.8133 29.2976 32.9309 29.2976 33.0759V33.3895C29.2976 33.5345 29.18 33.6521 29.035 33.6521H11.9202C11.8506 33.6521 11.7838 33.6244 11.7346 33.5752C11.6853 33.5259 11.6576 33.4591 11.6576 33.3895V33.0759C11.6576 32.9309 11.7752 32.8133 11.9202 32.8133ZM12.0261 34.7025H28.9311C29.0761 34.7025 29.1937 34.8201 29.1937 34.9651V35.2787C29.1937 35.4237 29.0761 35.5413 28.9311 35.5413H12.0261C11.9586 35.5414 11.8938 35.5152 11.8451 35.4685C11.7965 35.4217 11.768 35.3579 11.7654 35.2905V34.9769C11.7654 34.8319 11.883 34.7143 12.028 34.7143L12.0261 34.7025ZM12.1319 36.5917H28.8253C28.9703 36.5917 29.0879 36.7093 29.0879 36.8544V37.1679C29.0879 37.3129 28.9703 37.4305 28.8253 37.4305H12.1319C12.0623 37.4305 11.9955 37.4029 11.9462 37.3536C11.897 37.3044 11.8693 37.2376 11.8693 37.1679V36.8544C11.8693 36.7093 11.9869 36.5917 12.1319 36.5917Z" fill="white"/>
<g clip-path="url(#clip1_84_6945)">
<path fill-rule="evenodd" clip-rule="evenodd" d="M21.3416 15.9775C21.1723 16.2888 21.0543 16.505 20.9519 16.6579C20.8485 16.8125 20.7864 16.8619 20.7461 16.8807C20.6245 16.9376 20.4843 16.9396 20.3611 16.8862C20.3203 16.8685 20.2568 16.8208 20.1491 16.6692C20.0425 16.5192 19.9185 16.3064 19.7404 16.0001L17.7397 12.5574C17.4602 12.0765 17.2599 11.7314 17.1359 11.4704C17.0046 11.1937 16.9969 11.0839 17.0059 11.0442C17.0414 10.8886 17.1536 10.7616 17.3038 10.7074C17.3421 10.6936 17.4521 10.6879 17.7426 10.7845C18.0168 10.8757 18.3838 11.0324 18.8952 11.2512L19.8787 11.6718L19.9055 11.6833L19.9055 11.6833C20.0157 11.7305 20.1092 11.7706 20.2008 11.7969L20.2208 13.2177C20.223 13.373 20.3506 13.4972 20.5059 13.495C20.6612 13.4928 20.7853 13.3651 20.7832 13.2098L20.7632 11.789C20.8539 11.7601 20.9463 11.7175 21.0551 11.6671L21.0552 11.6671L21.0816 11.6549L22.0529 11.2068C22.558 10.9737 22.9204 10.8067 23.1919 10.7079C23.4797 10.6031 23.5898 10.6058 23.6284 10.6185C23.78 10.6684 23.8958 10.7921 23.9357 10.9467C23.9458 10.9861 23.9412 11.0962 23.8177 11.3764C23.7011 11.6407 23.5106 11.9914 23.2447 12.48L21.3416 15.9775ZM20.9844 17.3902C21.1674 17.3046 21.3003 17.1487 21.4194 16.9708C21.5378 16.7938 21.6679 16.5546 21.8288 16.259L21.8357 16.2464L23.7388 12.7488L23.7457 12.736L23.7457 12.736C24.0032 12.2629 24.2051 11.8917 24.3323 11.6033C24.4537 11.328 24.5439 11.0531 24.4803 10.8064C24.3927 10.4663 24.138 10.1941 23.8043 10.0843C23.5624 10.0046 23.2821 10.0765 22.9995 10.1794C22.7033 10.2873 22.3196 10.4643 21.8305 10.6899L21.8305 10.69L21.8173 10.696L20.846 11.1442C20.6546 11.2325 20.6026 11.2542 20.5526 11.2634C20.501 11.2729 20.4483 11.2736 20.3965 11.2656C20.3463 11.2578 20.2937 11.2376 20.0999 11.1547L19.1164 10.7341L19.1031 10.7283L19.1031 10.7283C18.6078 10.5165 18.2193 10.3503 17.9202 10.2508C17.6347 10.1559 17.3525 10.0919 17.1129 10.1784C16.7825 10.2976 16.5355 10.5768 16.4575 10.9193C16.4009 11.1677 16.4988 11.44 16.6279 11.7117C16.7631 11.9964 16.9755 12.3618 17.2461 12.8275L17.2534 12.84L19.2541 16.2827L19.2613 16.295C19.4305 16.5861 19.5673 16.8215 19.6907 16.9951C19.8147 17.1696 19.9519 17.3217 20.1372 17.4021C20.4083 17.5197 20.7168 17.5154 20.9844 17.3902Z" fill="white"/>
</g>
</g>
<path d="M73.7215 2.25021V7.39462H63.9226V36.5462H58.4842V7.39462H48.7344V2.25021H73.7215Z" fill="#E0D9F3"/>
<path d="M86.2101 11.5101C86.5694 11.5101 88.7345 12.0164 88.9305 12.0491V16.3116C88.5712 16.2136 85.9488 16.3116 85.6221 16.3116C83.597 16.3116 81.8986 16.9322 80.5267 18.1734C79.1549 19.3819 78.469 21.0967 78.469 23.3178V36.5462H73.3246V12.0491H78.469V16.2136C79.0242 14.9071 79.9715 13.7965 81.3106 12.882C82.6825 11.9674 84.3156 11.5101 86.2101 11.5101Z" fill="#E0D9F3"/>
<path d="M105.314 12.0491H110.459V36.5462H105.314V34.0965C104.433 35.0111 103.404 35.7623 102.228 36.3503C101.085 36.9055 99.8434 37.1832 98.5042 37.1832C97.0671 37.1832 95.5972 36.8892 94.0947 36.3013C92.6249 35.6807 91.351 34.5865 90.2732 33.0187C89.1953 31.4508 88.6563 29.3441 88.6563 26.6984V12.0491H93.8008V26.6984C93.8008 28.7888 94.3724 30.2913 95.5156 31.2059C96.6914 32.1204 98.0633 32.5777 99.6311 32.5777C101.166 32.5777 102.489 32.0388 103.6 30.9609C104.743 29.883 105.314 28.1356 105.314 25.7185V12.0491Z" fill="#E0D9F3"/>
<path d="M135.647 31.0255C134.471 32.6913 132.968 34.0142 131.139 34.994C129.31 35.9413 127.334 36.4149 125.211 36.4149C122.892 36.4149 120.736 35.8433 118.744 34.7001C116.784 33.5242 115.232 31.9564 114.089 29.9966C112.946 28.0042 112.374 25.8484 112.374 23.5294C112.374 21.2103 112.946 19.0709 114.089 17.1111C115.232 15.1513 116.784 13.5999 118.744 12.4567C120.736 11.2808 122.892 10.6929 125.211 10.6929C127.301 10.6929 129.245 11.1665 131.041 12.1137C132.87 13.0609 134.389 14.3674 135.598 16.0332L131.384 18.8749C130.6 17.895 129.669 17.1438 128.591 16.6212C127.546 16.0986 126.419 15.8373 125.211 15.8373C123.806 15.8373 122.516 16.1802 121.34 16.8661C120.164 17.5521 119.233 18.483 118.548 19.6588C117.862 20.8347 117.519 22.1249 117.519 23.5294C117.519 24.9339 117.862 26.2241 118.548 27.3999C119.233 28.5758 120.164 29.523 121.34 30.2416C122.516 30.9275 123.806 31.2705 125.211 31.2705C126.419 31.2705 127.546 31.0092 128.591 30.4866C129.669 29.9313 130.6 29.1801 131.384 28.2328L135.647 31.0255Z" fill="#E0D9F3"/>
<path d="M160.005 36.5462H153.538L146.042 26.7964L142.171 31.0099V36.5462H137.027V2.25021H142.171V23.4648L152.46 12.0491H159.613L149.569 22.9748L160.005 36.5462Z" fill="#E0D9F3"/>
<path d="M165.893 30.471C165.893 31.0262 166.008 31.4182 166.236 31.6468C166.498 31.8428 166.906 31.9408 167.461 31.9408C167.886 31.9408 168.392 31.8918 168.98 31.7938V36.5462C167.543 36.7422 166.53 36.8402 165.942 36.8402C164.276 36.8402 162.986 36.3993 162.072 35.5174C161.19 34.6355 160.749 33.0677 160.749 30.8139V2.25021H165.893V30.471Z" fill="#E0D9F3"/>
<path d="M186.965 12.0491H192.404L183.438 37.0362C182.197 40.2045 180.514 42.6052 178.391 44.2384C176.268 45.8715 173.802 46.5738 170.993 46.3451V41.3967C171.157 41.4294 171.402 41.4457 171.728 41.4457C174.602 41.4457 176.824 39.6002 178.391 35.9093L167.417 12.0491H172.953L180.841 29.0501L186.965 12.0491Z" fill="#E0D9F3"/>
<path d="M206.778 6.61071C205.896 6.51272 205.112 6.46372 204.427 6.46372C203.218 6.46372 202.336 6.70869 201.781 7.19864C201.258 7.68858 200.997 8.58681 200.997 9.89333V12.0491H207.282L207.573 16.7035H200.997V36.5462H195.853V16.7035L190.083 16.4324L191.541 12.0491H195.853V9.55037C195.853 6.57804 196.44 4.52028 197.616 3.37708C198.825 2.20121 200.67 1.61328 203.153 1.61328C204.1 1.61328 205.308 1.69494 206.778 1.85826V6.61071Z" fill="#E0D9F3"/>
<path d="M217.219 28.5112C217.219 29.8177 217.48 30.7159 218.003 31.2059C218.558 31.6958 219.44 31.9408 220.648 31.9408C221.334 31.9408 222.118 31.8918 223 31.7938V36.5462C221.53 36.7096 220.289 36.7912 219.276 36.7912C216.827 36.7912 215.014 36.2196 213.838 35.0764C212.662 33.9006 212.074 31.8265 212.074 28.8541V16.7035H207.028V12.0491H212.074V5.67981L217.219 3.91602V12.0491H222.902V16.7035H217.219V28.5112Z" fill="#E0D9F3"/>
<path d="M135.647 31.0255C134.471 32.6913 132.968 34.0142 131.139 34.994C129.31 35.9413 127.334 36.4149 125.211 36.4149C122.892 36.4149 120.736 35.8433 118.744 34.7001C116.784 33.5242 115.232 31.9564 114.089 29.9966C112.946 28.0042 112.374 25.8484 112.374 23.5294C112.374 21.2103 112.946 19.0709 114.089 17.1111C115.232 15.1513 116.784 13.5999 118.744 12.4567C120.736 11.2808 122.892 10.6929 125.211 10.6929C127.301 10.6929 129.245 11.1665 131.041 12.1137C132.87 13.0609 134.389 14.3674 135.598 16.0332L131.384 18.8749C130.6 17.895 129.669 17.1438 128.591 16.6212C127.546 16.0986 126.419 15.8373 125.211 15.8373C123.806 15.8373 122.516 16.1802 121.34 16.8661C120.164 17.5521 119.233 18.483 118.548 19.6588C117.862 20.8347 117.519 22.1249 117.519 23.5294C117.519 24.9339 117.862 26.2241 118.548 27.3999C119.233 28.5758 120.164 29.523 121.34 30.2416C122.516 30.9275 123.806 31.2705 125.211 31.2705C126.419 31.2705 127.546 31.0092 128.591 30.4866C129.669 29.9313 130.6 29.1801 131.384 28.2328L135.647 31.0255Z" fill="#E0D9F3"/>
<defs>
<clipPath id="clip0_84_6945">
<rect width="41.1552" height="47.0346" fill="white" transform="translate(0 0.48291)"/>
</clipPath>
<clipPath id="clip1_84_6945">
<rect width="8.9991" height="8.9991" fill="white" transform="translate(26.8497 12.064) rotate(134.194)"/>
</clipPath>
</defs>
</svg>
